<?xml version="1.0" encoding="UTF-8" standalone="no"?>
<!-- Created with Inkscape (http://www.inkscape.org/) -->

<svg
   xmlns:dc="http://purl.org/dc/elements/1.1/"
   xmlns:cc="http://creativecommons.org/ns#"
   xmlns:rdf="http://www.w3.org/1999/02/22-rdf-syntax-ns#"
   xmlns:svg="http://www.w3.org/2000/svg"
   xmlns="http://www.w3.org/2000/svg"
   xmlns:sodipodi="http://sodipodi.sourceforge.net/DTD/sodipodi-0.dtd"
   xmlns:inkscape="http://www.inkscape.org/namespaces/inkscape"
   width="65.69297mm"
   height="50mm"
   viewBox="0 0 65.69297 50"
   version="1.1"
   id="svg8"
   inkscape:version="0.92.2 2405546, 2018-03-11"
   sodipodi:docname="tee-02.svg">
  <defs
     id="defs2" />
  <sodipodi:namedview
     id="base"
     pagecolor="#ffffff"
     bordercolor="#666666"
     borderopacity="1.0"
     inkscape:pageopacity="0.0"
     inkscape:pageshadow="2"
     inkscape:zoom="4.5032083"
     inkscape:cx="124.1442"
     inkscape:cy="94.488189"
     inkscape:document-units="mm"
     inkscape:current-layer="layer1"
     showgrid="false"
     inkscape:window-width="1916"
     inkscape:window-height="1041"
     inkscape:window-x="0"
     inkscape:window-y="18"
     inkscape:window-maximized="0"
     fit-margin-top="0"
     fit-margin-left="0"
     fit-margin-right="0"
     fit-margin-bottom="0" />
  <metadata
     id="metadata5">
    <rdf:RDF>
      <cc:Work
         rdf:about="">
        <dc:format>image/svg+xml</dc:format>
        <dc:type
           rdf:resource="http://purl.org/dc/dcmitype/StillImage" />
        <dc:title></dc:title>
      </cc:Work>
    </rdf:RDF>
  </metadata>
  <g
     inkscape:label="Layer 1"
     inkscape:groupmode="layer"
     id="layer1"
     transform="translate(-72.038863,-113.37913)">
    <path
       style="fill:#ffffff;stroke:#000000;stroke-width:0.369;stroke-linecap:butt;stroke-linejoin:miter;stroke-opacity:1;stroke-miterlimit:4;stroke-dasharray:none"
       d="m 72.143772,124.86053 14.523996,-11.39575 6.926831,0.22345 7.150281,4.02203 6.92683,-3.35169 h 15.64122 l 14.30055,4.91581 -6.03304,12.28954 -12.51298,-3.12825 1.34067,34.4107 -34.85759,0.4469 2.011014,-31.72935 -8.937845,7.37372 z"
       id="path815"
       inkscape:connector-curvature="0" />
    <g
       transform="matrix(0.14810736,0,0,0.14810736,88.466885,104.95821)"
       id="layer1-4"
       inkscape:label="Layer 1">
      <g
         transform="translate(-2.0535713,82.184539)"
         id="g4706">
        <g
           id="g4587"
           transform="matrix(0.26458333,0,0,0.26458333,6.8035725,51.315477)">
          <path
             id="path4570"
             d="M 0,0 H 720 V 480 H 0 Z"
             inkscape:connector-curvature="0"
             style="fill:#ffffff" />
          <path
             id="path4572"
             d="m 150,180 11,41 41,-11 -30,30 30,30 -41,-11 -11,41 -11,-41 -41,11 30,-30 -30,-30 41,11 z m 140,0 11,41 41,-11 -30,30 30,30 -41,-11 -11,41 -11,-41 -41,11 30,-30 -30,-30 41,11 z m 140,0 11,41 41,-11 -30,30 30,30 -41,-11 -11,41 -11,-41 -41,11 30,-30 -30,-30 41,11 z m 140,0 11,41 41,-11 -30,30 30,30 -41,-11 -11,41 -11,-41 -41,11 30,-30 -30,-30 41,11 z"
             inkscape:connector-curvature="0"
             style="fill:#ff0000" />
          <path
             id="path4574"
             d="m 0,80 h 720 v 80 H 0 v 160 h 720 v 80 H 0 Z"
             inkscape:connector-curvature="0"
             style="fill:#b3ddf2" />
        </g>
        <text
           xml:space="preserve"
           style="font-style:normal;font-variant:normal;font-weight:normal;font-stretch:normal;font-size:14.11111069px;line-height:1.25;font-family:'Noto Mono';-inkscape-font-specification:'Noto Mono, Normal';font-variant-ligatures:normal;font-variant-caps:normal;font-variant-numeric:normal;font-feature-settings:normal;text-align:start;letter-spacing:0px;word-spacing:0px;writing-mode:lr-tb;text-anchor:start;fill:#ff0000;fill-opacity:1;stroke:none;stroke-width:0.26458332"
           x="76.673553"
           y="150.55389"
           id="text4595"><tspan
             sodipodi:role="line"
             id="tspan4593"
             x="76.673553"
             y="150.55389"
             style="font-style:normal;font-variant:normal;font-weight:normal;font-stretch:normal;font-size:14.11111069px;font-family:'Noto Mono';-inkscape-font-specification:'Noto Mono, Normal';font-variant-ligatures:normal;font-variant-caps:normal;font-variant-numeric:normal;font-feature-settings:normal;text-align:start;writing-mode:lr-tb;text-anchor:start;fill:#ff0000;fill-opacity:1;stroke-width:0.26458332">verify</tspan></text>
        <text
           xml:space="preserve"
           style="font-style:normal;font-variant:normal;font-weight:normal;font-stretch:normal;font-size:14.11111069px;line-height:1.25;font-family:'Noto Mono';-inkscape-font-specification:'Noto Mono, Normal';font-variant-ligatures:normal;font-variant-caps:normal;font-variant-numeric:normal;font-feature-settings:normal;text-align:start;letter-spacing:0px;word-spacing:0px;writing-mode:lr-tb;text-anchor:start;fill:#ff0000;fill-opacity:1;stroke:none;stroke-width:0.80146998"
           x="55.741154"
           y="87.342682"
           id="text4599"><tspan
             sodipodi:role="line"
             id="tspan4597"
             x="55.741154"
             y="87.342682"
             style="font-style:normal;font-variant:normal;font-weight:normal;font-stretch:normal;font-size:14.11111069px;font-family:'Noto Mono';-inkscape-font-specification:'Noto Mono, Normal';font-variant-ligatures:normal;font-variant-caps:normal;font-variant-numeric:normal;font-feature-settings:normal;text-align:start;writing-mode:lr-tb;text-anchor:start;fill:#ff0000;fill-opacity:1;stroke-width:0.80146998">don't trust</tspan></text>
      </g>
    </g>
  </g>
</svg>
